<svg xmlns="http://www.w3.org/2000/svg">
  <symbol id="facebook">
      <path d="M12 2.04c-5.5 0-10 4.49-10 10.02 0 5 3.66 9.15 8.44 9.9v-7H7.9v-2.9h2.54V9.85c0-2.51 1.49-3.89 3.78-3.89 1.09 0 2.23.19 2.23.19v2.47h-1.26c-1.24 0-1.63.77-1.63 1.56v1.88h2.78l-.45 2.9h-2.33v7a10 10 0 0 0 8.44-9.9c0-5.53-4.5-10.02-10-10.02Z"/>  
  </symbol>

  <symbol id="google">
    <path d="M12 2C6.5 2 2 6.5 2 12s4.5 10 10 10 10-4.5 10-10S17.5 2 12 2zM9.1 16c-2.2 0-4-1.8-4-4s1.8-4 4-4c1 0 2 .4 2.7 1.1l-1.1 1.1c-.4-.4-1-.6-1.6-.6-1.3 0-2.4 1.1-2.4 2.4s1.1 2.4 2.4 2.4c1.1 0 1.9-.7 2.2-1.6H9.1v-1.5h3.8c.3 1.6-.4 4.7-3.8 4.7zm8.3-3.3v1.4H16v-1.4h-1.4v-1.4H16V9.9h1.4v1.4h1.4v1.4h-1.4z"/>
    <path d="M0 0h24v24H0z" style="fill:none"/>
  </symbol>

  <symbol id="twitter">
      <path d="M113 145c-141.4 0-256 114.6-256 256s114.6 256 256 256 256-114.6 256-256-114.6-256-256-256zm102.2 216.2c.1 2.2.1 4.5.1 6.8 0 69.5-52.9 149.7-149.7 149.7-29.7 0-57.4-8.7-80.6-23.6 4.1.5 8.3.7 12.6.7 24.6 0 47.3-8.4 65.3-22.5-23-.4-42.5-15.6-49.1-36.5 3.2.6 6.5.9 9.9.9 4.8 0 9.5-.6 13.9-1.9-24.1-4.8-42.2-26.1-42.2-51.6v-.6c7.1 3.9 15.2 6.3 23.8 6.6-14.1-9.4-23.4-25.6-23.4-43.8 0-9.6 2.6-18.7 7.1-26.5 26 31.9 64.7 52.8 108.4 55-.9-3.8-1.4-7.8-1.4-12 0-29 23.6-52.6 52.6-52.6 15.1 0 28.8 6.4 38.4 16.6 12-2.4 23.2-6.7 33.4-12.8-3.9 12.3-12.3 22.6-23.1 29.1 10.6-1.3 20.8-4.1 30.2-8.3-7 10.6-15.9 19.8-26.2 27.3z"/>
  </symbol>
</svg>
