<svg xmlns="http://www.w3.org/2000/svg" width="682.667" height="682.667" version="1.0" viewBox="0 0 512 512">
  <path d="M238 .6c-1.9.2-7.8.9-13 1.4-33 3.6-69.5 16-99 33.6C88.5 58 58 88.5 35.6 126c-17.5 29.2-29.1 63.2-33.8 99-1.6 12.3-1.6 49.7 0 62 8.2 62.3 35.6 115 82 158.1 25.6 23.9 57.5 42.5 92.2 53.9 27.4 9.1 49.1 12.4 80 12.4 22.8 0 32.9-.9 53-5 68.9-14.1 130.4-58.3 167.4-120.4 17.5-29.2 29.1-63.2 33.8-99 1.6-12.3 1.6-49.7 0-62-4.7-35.8-16.3-69.8-33.8-99C454 88.5 423.5 58 386 35.6 357.1 18.3 322.6 6.5 288 2 279.2.8 244.2-.1 238 .6zm2.7 134c-.8.9-76-4-77.4-5-.7-.5 8.4-22.1 13.6-32.4 16.5-33 38.4-56.2 60-63.7l3.6-1.2.3 51c.1 28.1.1 51.1-.1 51.3zM283.1 37c18.5 9.3 37.6 31.5 52 60.2 6.2 12.4 14.2 31.9 13.4 32.7-.8.8-41.9 3.8-60.2 4.5l-17.3.6V32.1l3.8 1.3c2.2.8 5.9 2.4 8.3 3.6zM172.4 47.2c-.4.7-2.8 4.2-5.4 7.8-11 15.1-22.4 37.5-30.5 59.7-2.2 6-4.3 10.3-5 10.3-4.3 0-49-10.2-50.2-11.4-.8-.7 9.8-12.6 18.9-21.2 16.8-16 34.9-28.5 56.3-39 15.4-7.6 17.1-8.3 15.9-6.2zm183.1 6.2c21.4 10.5 39.3 22.9 56.4 39.1 9.5 9 20.4 21.6 19.4 22.6-1.7 1.5-50.9 11.8-51.7 10.8-.1-.2-2-5.1-4.1-10.9-8-22.2-19.4-44.7-30.5-60-5.7-7.9-6.4-9-5.3-9 .5 0 7.6 3.3 15.8 7.4zm-283.8 89c9.5 2.9 35.8 9 45.7 10.7l6.8 1.1-.5 3.7c-.3 2-1.7 9.7-3 17.1-3.1 16.3-5.4 36.1-6.3 53.2l-.7 12.8H31v-3.6c0-11.3 5.7-38.5 11.7-55.8 5-14.7 18.1-41.6 20.2-41.6.4 0 4.4 1.1 8.8 2.4zm387.8 15.8c7.2 15 12.1 28.6 15.9 43.9 2.7 11.2 5.6 29.4 5.6 35.3v3.6H398.3l-.7-12.8c-.9-17.1-3.2-36.8-6.2-53.2-1.4-7.4-2.8-14.9-3.1-16.6l-.5-3.2 7.3-1.2c9.9-1.6 36.3-7.4 46.9-10.4 10.1-2.8 8.4-4.2 17.5 14.6zm-289.3 2.3c12.3 1.3 29.4 2.5 59.1 4.1l11.7.6V241h-97v-5.3c0-20.5 8.5-76.7 11.6-76.7.7 0 7.2.7 14.6 1.5zm187.8-.1c0 .2.9 4.7 2 9.9 4.1 20.1 8 51.9 8 65.4v5.3h-97V165.3l16.3-.7c19.2-.8 60-3.6 60.6-4.2.6-.5 10.1-.5 10.1 0zM114.8 288.3c1.3 18.9 4.1 39.8 7.3 55 2.3 10.5 2.1 12.7-1.1 12.7-3.6 0-36.5 7-47.4 10-5.9 1.7-11.3 3-12.2 3-2.2 0-14.3-25.3-19.2-40.2-6.1-18.4-11.2-43-11.2-54.2V271h82.6l1.2 17.3zM241 308.5V346h-11.7c-14.4 0-39.7 1.5-59.7 3.5-8.2.9-15 1.4-15.1 1.3-.2-.2-1.5-6-2.9-13-3.1-15.3-6.2-39-7.2-55.1l-.7-11.7H241v37.5zm126.6-25.8c-1 16.1-4.1 40.2-7.2 55.3-1.4 6.9-2.8 12.8-2.9 13.1-.2.3-3.5.2-7.2-.3-15.8-1.9-42.1-3.8-60-4.5l-19.3-.6V271H368.3l-.7 11.7zm113.4-8.1c0 11.3-5.1 35.8-11.2 54.4-5.3 15.9-18.3 42.4-20.4 41.6-7.1-2.7-57.4-14.6-61.8-14.6-.2 0 .5-3.9 1.5-8.8 3.2-14.4 6.8-40.4 8.1-58.8l1.2-17.4H481v3.6zM241 427c0 28-.2 51-.4 51-.9 0-8.5-3.3-13.1-5.7-18.2-9.6-37.6-32.4-51.1-60.1-5.1-10.6-13.7-31.3-13.1-31.8.3-.2 38.1-3.3 46.2-3.7 3.3-.2 11.7-.4 18.8-.5l12.7-.2v51zm83.5-48.5c8.8.8 17.9 1.7 20.2 2l4.1.6-3.8 9.8c-15.3 39.3-37.7 69.4-60.5 81.4-4.6 2.4-12.2 5.7-13.1 5.7-.2 0-.4-23-.4-51.1v-51.2l18.8.7c10.3.4 25.9 1.4 34.7 2.1zm-189.9 11.8c8.3 25.1 20.9 49 39.3 74.8 1.4 2 1.3 2-3.7 0-23.3-9.2-50-26.6-70.2-45.8-9.1-8.7-21.7-23-20.9-23.7 1.6-1.3 51.7-11.6 53.1-10.9.3.2 1.4 2.7 2.4 5.6zm257.4-2.8c11.9 2.3 38.3 8.6 39.3 9.4 1.1 1-10.3 14-20.8 23.8-19.5 18.3-46.1 35.5-68.7 44.4-5 2-5.1 2-3.7 0 18.4-25.8 31-49.7 39.3-74.8 1.5-4.6 2.1-5.2 3.9-4.8 1.2.2 6 1.1 10.7 2z"/>
</svg>
